<svg width="30" height="30" viewBox="0 0 30 30" fill="none" xmlns="http://www.w3.org/2000/svg">
<path d="M21.25 15C21.25 11.5538 18.4463 8.75 15 8.75C11.5538 8.75 8.75 11.5538 8.75 15C8.75 18.4463 11.5538 21.25 15 21.25C18.4463 21.25 21.25 18.4463 21.25 15ZM15 26.25C8.7975 26.25 3.75 21.2038 3.75 15C3.75 8.79625 8.7975 3.75 15 3.75C21.2025 3.75 26.25 8.79625 26.25 15C26.25 21.2038 21.2025 26.25 15 26.25Z" fill="#F8FCFB"/>
<path d="M15 0V30M0 15H30M21.25 15C21.25 11.5538 18.4462 8.75 15 8.75C11.5538 8.75 8.75 11.5538 8.75 15C8.75 18.4462 11.5538 21.25 15 21.25C18.4462 21.25 21.25 18.4462 21.25 15ZM15 26.25C8.7975 26.25 3.75 21.2037 3.75 15C3.75 8.79625 8.7975 3.75 15 3.75C21.2025 3.75 26.25 8.79625 26.25 15C26.25 21.2037 21.2025 26.25 15 26.25Z" stroke="#226F78" stroke-width="2"/>
</svg>
