<svg width="25" height="25" viewBox="0 0 25 25" fill="none" xmlns="http://www.w3.org/2000/svg">
<path d="M12.5 0C5.59625 0 0 5.59625 0 12.5C0 19.4037 5.59625 25 12.5 25C19.4037 25 25 19.4037 25 12.5C25 5.59625 19.4037 0 12.5 0ZM21.1475 7.5H17.1287C16.9419 6.09351 16.7064 4.69391 16.4225 3.30375C18.4073 4.15867 20.0641 5.63004 21.1475 7.5ZM13.7675 2.59C13.8525 3.03 14.2513 5.1375 14.5738 7.5H10.4262C10.7487 5.1375 11.1475 3.03 11.2325 2.59C11.6488 2.53625 12.07 2.5 12.5 2.5C12.93 2.5 13.3512 2.53625 13.7675 2.59ZM15 12.5C15 13.2475 14.9462 14.1075 14.8637 15H10.1363C10.0538 14.1075 10 13.2475 10 12.5C10 11.7525 10.0538 10.8925 10.1363 10H14.8637C14.9462 10.8925 15 11.7525 15 12.5ZM8.5775 3.30375C8.29364 4.69391 8.05808 6.09351 7.87125 7.5H3.8525C4.93589 5.63004 6.59266 4.15867 8.5775 3.30375ZM2.82875 10H7.605C7.54125 10.835 7.5 11.68 7.5 12.5C7.5 13.32 7.54125 14.165 7.60625 15H2.82875C2.62125 14.1988 2.5 13.365 2.5 12.5C2.5 11.635 2.6225 10.8012 2.82875 10ZM3.8525 17.5H7.87125C8.10625 19.28 8.39625 20.8125 8.5775 21.6963C6.59266 20.8413 4.93589 19.37 3.8525 17.5ZM11.2325 22.41C10.9216 20.7805 10.6528 19.1433 10.4262 17.5H14.5738C14.3467 19.1432 14.0778 20.7804 13.7675 22.41C13.3512 22.4637 12.93 22.5 12.5 22.5C12.07 22.5 11.6488 22.4637 11.2325 22.41ZM16.4225 21.6963C16.6038 20.8125 16.8937 19.28 17.1287 17.5H21.1475C20.0641 19.37 18.4073 20.8413 16.4225 21.6963ZM22.1712 15H17.395C17.4587 14.165 17.5 13.32 17.5 12.5C17.5 11.68 17.4587 10.835 17.3937 10H22.17C22.3775 10.8012 22.5 11.635 22.5 12.5C22.5 13.365 22.3787 14.1988 22.1712 15Z" fill="#226F78"/>
</svg>
