<svg width="28" height="28" viewBox="0 0 28 28" fill="none" xmlns="http://www.w3.org/2000/svg">
<path d="M11.4898 0.000234269C11.3627 -0.00052745 11.2359 0.000703059 11.109 0.00199212C9.89068 0.0151171 8.68992 0.126797 7.54031 0.364687C4.51981 0.989707 1.85941 2.45766 0 5.32676V27.6821H7.46344C5.19264 25.4218 4.27752 22.7498 4.22977 20.2663C4.17492 17.4153 5.21355 14.8158 6.59367 13.2021C9.15041 10.2127 11.9304 8.81912 14.5129 8.61902C17.0954 8.41893 19.4479 9.41016 21.1395 11.0562C22.8311 12.7021 23.8788 15.0062 23.875 17.4593C23.8721 19.3897 23.1924 21.4019 21.7088 23.2216C23.4998 22.5568 24.8135 21.4137 25.7336 19.9697C26.9417 18.0736 27.4564 15.6431 27.3413 13.1582C27.0666 7.23609 22.9836 1.78734 17.2008 0.628301C15.3431 0.255879 13.3987 0.0113085 11.4897 0.000175707L11.4898 0.000234269ZM16.8494 9.88242C18.831 12.9166 18.7971 16.3403 17.4298 18.9809C16.3749 21.0183 14.5476 22.6042 12.3046 23.2015C10.5699 23.6635 8.59494 23.5097 6.59174 22.5605C7.6551 24.1039 9.02221 25.0754 10.5451 25.6056C12.5662 26.3094 14.8845 26.2179 17.0947 25.5067C17.4737 25.3848 17.8465 25.2442 18.2117 25.0856L18.1678 25.0929L19.6143 23.8314C21.8708 21.8592 22.777 19.5969 22.7801 17.4574C22.7834 15.318 21.863 13.2885 20.376 11.8416C19.4046 10.8963 18.1978 10.2016 16.8494 9.88236V9.88242Z" fill="#226F78"/>
</svg>
